<svg xmlns="http://www.w3.org/2000/svg" version="1.1" xmlns:xlink="http://www.w3.org/1999/xlink" width="160" height="20" viewBox="0 0 2000 252"><g transform="matrix(1,0,0,1,-1.2121210624746936,-0.8736444767839515)"><svg viewBox="0 0 396 50" preserveAspectRatio="xMidYMid meet" height="252" width="2000" xmlns="http://www.w3.org/2000/svg" xmlns:xlink="http://www.w3.org/1999/xlink"><g id="tight-bounds" transform="matrix(1,0,0,1,0.24000002962998224,0.1733421580920549)"><svg viewBox="0 0 395.52 49.653315683815876" height="49.653315683815876" width="395.52"><g><svg viewBox="0 0 534.5537997231158 67.10752570700637" height="49.653315683815876" width="395.52"><g transform="matrix(1,0,0,1,0,1.181584509554149)"><svg viewBox="0 0 395.52 64.74435668789808" height="64.74435668789808" width="395.52"><g id="textblocktransform"><svg viewBox="0 0 395.52 64.74435668789808" height="64.74435668789808" width="395.52" id="textblock"><g><svg viewBox="0 0 395.52 64.74435668789808" height="64.74435668789808" width="395.52"><g transform="matrix(1,0,0,1,0,0)"><svg width="395.52" viewBox="1.7000000476837158 -37.77000045776367 235.47999572753906 38.54999923706055" height="64.74435668789808"><path d="M22.9-27.25L22.9-27.25Q24.6-27.25 25.8-26.53 27-25.8 27.65-24.14 28.3-22.48 28.3-19.63L28.3-19.63 28.3 0 22.43 0 22.43-18.8Q22.43-20.55 22.15-21.29 21.88-22.03 20.88-22.03L20.88-22.03Q20.08-22.03 19.26-21.54 18.45-21.05 17.55-19.85L17.55-19.85 17.55 0 12.5 0 12.5-18.8Q12.5-20.55 12.23-21.29 11.95-22.03 10.98-22.03L10.98-22.03Q10.15-22.03 9.34-21.54 8.53-21.05 7.65-19.85L7.65-19.85 7.65 0 1.7 0 1.7-26.48 6.73-26.48 7.15-23.75Q8.35-25.4 9.65-26.33 10.95-27.25 12.78-27.25L12.78-27.25Q14.28-27.25 15.41-26.5 16.55-25.75 17.05-24L17.05-24Q18.23-25.45 19.64-26.35 21.05-27.25 22.9-27.25ZM55.25-18.15L55.25-7.05Q55.25-5.53 55.69-4.84 56.12-4.15 57.1-3.8L57.1-3.8 55.67 0.7Q53.52 0.48 52.01-0.35 50.5-1.18 49.7-2.88L49.7-2.88Q48.2-1.05 45.9-0.14 43.6 0.78 41.1 0.78L41.1 0.78Q37.05 0.78 34.66-1.54 32.27-3.85 32.27-7.53L32.27-7.53Q32.27-11.78 35.6-14.06 38.92-16.35 45.02-16.35L45.02-16.35 48.67-16.35 48.67-17.73Q48.67-20.05 47.23-21.1 45.8-22.15 43.12-22.15L43.12-22.15Q41.82-22.15 39.91-21.8 38-21.45 35.97-20.78L35.97-20.78 34.37-25.38Q36.9-26.33 39.48-26.79 42.07-27.25 44.17-27.25L44.17-27.25Q49.8-27.25 52.52-24.88 55.25-22.5 55.25-18.15L55.25-18.15ZM43.3-4.13L43.3-4.13Q44.8-4.13 46.31-4.95 47.82-5.78 48.67-7.3L48.67-7.3 48.67-12.38 46.15-12.38Q42.52-12.38 40.91-11.21 39.3-10.05 39.3-7.9L39.3-7.9Q39.3-6.1 40.32-5.11 41.35-4.13 43.3-4.13ZM79.27-24.6L79.27-37.77 86.02-37.05 86.02 0 80.05 0 79.65-3.1Q78.45-1.38 76.59-0.3 74.75 0.78 72.27 0.78L72.27 0.78Q68.92 0.78 66.75-0.99 64.57-2.75 63.5-5.91 62.42-9.08 62.42-13.28L62.42-13.28Q62.42-17.32 63.68-20.49 64.95-23.65 67.31-25.45 69.67-27.25 72.92-27.25L72.92-27.25Q74.84-27.25 76.45-26.58 78.05-25.9 79.27-24.6L79.27-24.6ZM74.72-22.23L74.72-22.23Q72.3-22.23 70.88-20.09 69.47-17.95 69.47-13.25L69.47-13.25Q69.47-9.93 70.06-7.96 70.65-6 71.72-5.15 72.8-4.3 74.27-4.3L74.27-4.3Q75.87-4.3 77.11-5.26 78.34-6.23 79.27-7.7L79.27-7.7 79.27-19.68Q78.37-20.88 77.26-21.55 76.15-22.23 74.72-22.23ZM109.27-24.6L109.27-37.77 116.02-37.05 116.02 0 110.04 0 109.64-3.1Q108.44-1.38 106.59-0.3 104.74 0.78 102.27 0.78L102.27 0.78Q98.92 0.78 96.74-0.99 94.57-2.75 93.49-5.91 92.42-9.08 92.42-13.28L92.42-13.28Q92.42-17.32 93.68-20.49 94.94-23.65 97.31-25.45 99.67-27.25 102.92-27.25L102.92-27.25Q104.84-27.25 106.44-26.58 108.04-25.9 109.27-24.6L109.27-24.6ZM104.72-22.23L104.72-22.23Q102.29-22.23 100.88-20.09 99.47-17.95 99.47-13.25L99.47-13.25Q99.47-9.93 100.06-7.96 100.64-6 101.72-5.15 102.79-4.3 104.27-4.3L104.27-4.3Q105.87-4.3 107.11-5.26 108.34-6.23 109.27-7.7L109.27-7.7 109.27-19.68Q108.37-20.88 107.26-21.55 106.14-22.23 104.72-22.23ZM137.37-4.65L137.37-4.65Q139.09-4.65 140.62-5.29 142.14-5.93 143.56-6.93L143.56-6.93 146.64-2.63Q144.89-1.15 142.42-0.19 139.94 0.78 137.06 0.78L137.06 0.78Q132.89 0.78 129.92-0.96 126.94-2.7 125.35-5.83 123.77-8.95 123.77-13.08L123.77-13.08Q123.77-17.18 125.39-20.38 127.02-23.58 130.02-25.41 133.02-27.25 137.19-27.25L137.19-27.25Q140.06-27.25 142.38-26.44 144.69-25.63 146.62-24.03L146.62-24.03 143.62-19.88Q142.17-20.88 140.62-21.43 139.06-21.98 137.39-21.98L137.39-21.98Q134.49-21.98 132.68-19.89 130.87-17.8 130.87-13.08L130.87-13.08Q130.87-9.98 131.72-8.13 132.56-6.28 134.04-5.46 135.52-4.65 137.37-4.65ZM164.99-35.35L164.99-35.35Q170.99-35.35 174.05-30.63 177.11-25.9 177.11-17.35L177.11-17.35Q177.11-8.78 174.05-4 170.99 0.78 164.99 0.78L164.99 0.78Q158.96 0.78 155.91-4 152.86-8.78 152.86-17.35L152.86-17.35Q152.86-25.9 155.91-30.63 158.96-35.35 164.99-35.35ZM164.99-30.35L164.99-30.35Q162.19-30.35 160.76-27.35 159.34-24.35 159.34-17.35L159.34-17.35Q159.34-12.15 159.88-9.31 160.41-6.48 161.65-5.35 162.89-4.23 164.99-4.23L164.99-4.23Q166.89-4.23 168.13-5.51 169.36-6.8 169.98-9.69 170.59-12.58 170.59-17.35L170.59-17.35Q170.59-22.48 170.06-25.3 169.54-28.13 168.31-29.24 167.09-30.35 164.99-30.35ZM159.19-8.4L169.26-29.23 171.01-25.1 161.24-5.05 159.19-8.4ZM199.26-24.6L199.26-37.77 206.01-37.05 206.01 0 200.04 0 199.64-3.1Q198.44-1.38 196.59-0.3 194.74 0.78 192.26 0.78L192.26 0.78Q188.91 0.78 186.74-0.99 184.56-2.75 183.49-5.91 182.41-9.08 182.41-13.28L182.41-13.28Q182.41-17.32 183.67-20.49 184.94-23.65 187.3-25.45 189.66-27.25 192.91-27.25L192.91-27.25Q194.84-27.25 196.44-26.58 198.04-25.9 199.26-24.6L199.26-24.6ZM194.71-22.23L194.71-22.23Q192.29-22.23 190.87-20.09 189.46-17.95 189.46-13.25L189.46-13.25Q189.46-9.93 190.05-7.96 190.64-6 191.71-5.15 192.79-4.3 194.26-4.3L194.26-4.3Q195.86-4.3 197.1-5.26 198.34-6.23 199.26-7.7L199.26-7.7 199.26-19.68Q198.36-20.88 197.25-21.55 196.14-22.23 194.71-22.23ZM237.06-11.2L219.71-11.2Q219.93-8.75 220.86-7.23 221.78-5.7 223.25-5 224.71-4.3 226.48-4.3L226.48-4.3Q228.38-4.3 230.06-4.9 231.73-5.5 233.36-6.55L233.36-6.55 236.16-2.73Q234.31-1.18 231.73-0.2 229.16 0.78 226.06 0.78L226.06 0.78Q221.71 0.78 218.76-1.01 215.81-2.8 214.3-5.95 212.78-9.1 212.78-13.23L212.78-13.23Q212.78-17.15 214.26-20.34 215.73-23.53 218.53-25.39 221.33-27.25 225.28-27.25L225.28-27.25Q228.93-27.25 231.61-25.65 234.28-24.05 235.73-21.05 237.18-18.05 237.18-13.85L237.18-13.85Q237.18-13.18 237.16-12.46 237.13-11.75 237.06-11.2L237.06-11.2ZM225.31-22.53L225.31-22.53Q222.93-22.53 221.42-20.83 219.91-19.13 219.63-15.48L219.63-15.48 230.63-15.48Q230.58-18.78 229.27-20.65 227.96-22.53 225.31-22.53Z" opacity="1" transform="matrix(1,0,0,1,0,0)" fill="currentColor" class="wordmark-text-0" data-fill-palette-color="primary" id="text-0"></path></svg></g></svg></g></svg></g></svg></g><g transform="matrix(1,0,0,1,410.8045887494522,0)"><svg viewBox="0 0 123.74921097366358 67.10752570700637" height="67.10752570700637" width="123.74921097366358"><g><svg xmlns="http://www.w3.org/2000/svg" data-name="Layer 1" viewBox="13.199999809265137 29.5 72.60000610351562 39.37000274658203" x="0" y="0" height="67.10752570700637" width="123.74921097366358" class="icon-icon-0" data-fill-palette-color="accent" id="icon-0"><polygon points="39.6 68.87 42.82 68.87 59.4 29.5 56.18 29.5 39.6 68.87" fill="currentColor" data-fill-palette-color="accent"></polygon><polygon points="66 29.5 66 34.14 81.13 49.17 66 64.21 66 68.84 85.8 49.17 66 29.5" fill="currentColor" data-fill-palette-color="accent"></polygon><polygon points="33 68.84 33 64.21 17.87 49.17 33 34.14 33 29.5 13.2 49.17 33 68.84" fill="currentColor" data-fill-palette-color="accent"></polygon></svg></g></svg></g></svg></g><defs></defs></svg></g></svg></g></svg>